<svg width="102" height="32" viewBox="0 0 102 32" fill="none" xmlns="http://www.w3.org/2000/svg">
<path d="M38.386 23V11.264H41.284L43.174 16.484C43.294 16.832 43.408 17.192 43.516 17.564C43.624 17.924 43.738 18.284 43.858 18.644H43.93C44.05 18.284 44.158 17.924 44.254 17.564C44.362 17.192 44.476 16.832 44.596 16.484L46.45 11.264H49.33V23H46.918V18.698C46.918 18.41 46.93 18.092 46.954 17.744C46.978 17.396 47.008 17.048 47.044 16.7C47.08 16.34 47.116 15.992 47.152 15.656C47.188 15.308 47.224 14.99 47.26 14.702H47.188L46.234 17.492L44.56 21.974H43.102L41.428 17.492L40.492 14.702H40.42C40.456 14.99 40.492 15.308 40.528 15.656C40.564 15.992 40.6 16.34 40.636 16.7C40.672 17.048 40.702 17.396 40.726 17.744C40.75 18.092 40.762 18.41 40.762 18.698V23H38.386ZM54.1309 23.216C53.7229 23.216 53.3509 23.144 53.0149 23C52.6909 22.868 52.4149 22.682 52.1869 22.442C51.9589 22.19 51.7789 21.902 51.6469 21.578C51.5269 21.254 51.4669 20.9 51.4669 20.516C51.4669 19.58 51.8629 18.848 52.6549 18.32C53.4469 17.792 54.7249 17.438 56.4889 17.258C56.4649 16.862 56.3449 16.55 56.1289 16.322C55.9249 16.082 55.5769 15.962 55.0849 15.962C54.7009 15.962 54.3169 16.034 53.9329 16.178C53.5609 16.322 53.1589 16.52 52.7269 16.772L51.7729 15.026C52.3489 14.678 52.9489 14.396 53.5729 14.18C54.2089 13.964 54.8809 13.856 55.5889 13.856C56.7409 13.856 57.6169 14.186 58.2169 14.846C58.8289 15.494 59.1349 16.508 59.1349 17.888V23H56.9749L56.7949 22.082H56.7229C56.3389 22.418 55.9369 22.694 55.5169 22.91C55.0969 23.114 54.6349 23.216 54.1309 23.216ZM55.0309 21.164C55.3309 21.164 55.5889 21.098 55.8049 20.966C56.0209 20.834 56.2489 20.648 56.4889 20.408V18.842C55.5529 18.974 54.9049 19.166 54.5449 19.418C54.1849 19.67 54.0049 19.97 54.0049 20.318C54.0049 20.606 54.0949 20.822 54.2749 20.966C54.4669 21.098 54.7189 21.164 55.0309 21.164ZM61.3731 23V10.382H63.9471V17.618H64.0191L66.8451 14.072H69.7251L66.5931 17.744L69.9591 23H67.0971L65.0811 19.526L63.9471 20.804V23H61.3731ZM74.7207 23.216C74.0847 23.216 73.4907 23.114 72.9387 22.91C72.3867 22.694 71.9067 22.388 71.4987 21.992C71.0907 21.584 70.7727 21.092 70.5447 20.516C70.3167 19.94 70.2027 19.28 70.2027 18.536C70.2027 17.816 70.3227 17.168 70.5627 16.592C70.8027 16.004 71.1147 15.512 71.4987 15.116C71.8947 14.708 72.3447 14.396 72.8487 14.18C73.3527 13.964 73.8747 13.856 74.4147 13.856C75.0507 13.856 75.6027 13.964 76.0707 14.18C76.5507 14.396 76.9467 14.696 77.2587 15.08C77.5827 15.464 77.8227 15.92 77.9787 16.448C78.1347 16.964 78.2127 17.528 78.2127 18.14C78.2127 18.38 78.2007 18.608 78.1767 18.824C78.1527 19.04 78.1287 19.202 78.1047 19.31H72.7587C72.8787 19.958 73.1427 20.438 73.5507 20.75C73.9707 21.05 74.4807 21.2 75.0807 21.2C75.7167 21.2 76.3587 21.002 77.0067 20.606L77.8887 22.208C77.4327 22.52 76.9227 22.766 76.3587 22.946C75.8067 23.126 75.2607 23.216 74.7207 23.216ZM72.7407 17.564H75.9627C75.9627 17.06 75.8487 16.652 75.6207 16.34C75.3927 16.028 75.0087 15.872 74.4687 15.872C74.0487 15.872 73.6767 16.01 73.3527 16.286C73.0407 16.562 72.8367 16.988 72.7407 17.564ZM80.2571 23V11.264H83.1551L85.0451 16.484C85.1651 16.832 85.2791 17.192 85.3871 17.564C85.4951 17.924 85.6091 18.284 85.7291 18.644H85.8011C85.9211 18.284 86.0291 17.924 86.1251 17.564C86.2331 17.192 86.3471 16.832 86.4671 16.484L88.3211 11.264H91.2011V23H88.7891V18.698C88.7891 18.41 88.8011 18.092 88.8251 17.744C88.8491 17.396 88.8791 17.048 88.9151 16.7C88.9511 16.34 88.9871 15.992 89.0231 15.656C89.0591 15.308 89.0951 14.99 89.1311 14.702H89.0591L88.1051 17.492L86.4311 21.974H84.9731L83.2991 17.492L82.3631 14.702H82.2911C82.3271 14.99 82.3631 15.308 82.3991 15.656C82.4351 15.992 82.4711 16.34 82.5071 16.7C82.5431 17.048 82.5731 17.396 82.5971 17.744C82.6211 18.092 82.6331 18.41 82.6331 18.698V23H80.2571ZM93.968 23V11.264H96.614V20.768H101.258V23H93.968Z" fill="#1D2B41"/>
<g clip-path="url(#clip0)">
<path d="M2.5 2.35H2.35V2.5V29.5V29.65H2.5H29.5H29.65V29.5V2.5V2.35H29.5H2.5ZM3.65 28.35V3.65H28.35V28.35H3.65Z" fill="#00426F" stroke="#014C7B" stroke-width="0.3"/>
<path d="M29 6C30.6569 6 32 4.65685 32 3C32 1.34315 30.6569 0 29 0C27.3431 0 26 1.34315 26 3C26 4.65685 27.3431 6 29 6Z" fill="url(#paint0_linear)"/>
<path d="M29 5C30.1046 5 31 4.10457 31 3C31 1.89543 30.1046 1 29 1C27.8954 1 27 1.89543 27 3C27 4.10457 27.8954 5 29 5Z" fill="url(#paint1_linear)"/>
<path d="M27.5848 1.585C28.3648 0.805 29.6323 0.805 30.4123 1.585C31.1923 2.365 31.1923 3.6325 30.4123 4.4125L27.5848 1.585Z" fill="url(#paint2_linear)"/>
<path d="M3 6C4.65685 6 6 4.65685 6 3C6 1.34315 4.65685 0 3 0C1.34315 0 0 1.34315 0 3C0 4.65685 1.34315 6 3 6Z" fill="url(#paint3_linear)"/>
<path d="M3 5C4.10457 5 5 4.10457 5 3C5 1.89543 4.10457 1 3 1C1.89543 1 1 1.89543 1 3C1 4.10457 1.89543 5 3 5Z" fill="url(#paint4_linear)"/>
<path d="M1.58496 1.585C2.36496 0.805 3.63246 0.805 4.41246 1.585C5.19246 2.365 5.19246 3.6325 4.41246 4.4125L1.58496 1.585Z" fill="url(#paint5_linear)"/>
<path d="M29 32C30.6569 32 32 30.6569 32 29C32 27.3431 30.6569 26 29 26C27.3431 26 26 27.3431 26 29C26 30.6569 27.3431 32 29 32Z" fill="url(#paint6_linear)"/>
<path d="M29 31C30.1046 31 31 30.1046 31 29C31 27.8954 30.1046 27 29 27C27.8954 27 27 27.8954 27 29C27 30.1046 27.8954 31 29 31Z" fill="url(#paint7_linear)"/>
<path d="M27.5848 27.585C28.3648 26.805 29.6323 26.805 30.4123 27.585C31.1923 28.365 31.1923 29.6325 30.4123 30.4125L27.5848 27.585Z" fill="url(#paint8_linear)"/>
<path d="M3 32C4.65685 32 6 30.6569 6 29C6 27.3431 4.65685 26 3 26C1.34315 26 0 27.3431 0 29C0 30.6569 1.34315 32 3 32Z" fill="url(#paint9_linear)"/>
<path d="M3 31C4.10457 31 5 30.1046 5 29C5 27.8954 4.10457 27 3 27C1.89543 27 1 27.8954 1 29C1 30.1046 1.89543 31 3 31Z" fill="url(#paint10_linear)"/>
<path d="M1.58496 27.585C2.36496 26.805 3.63246 26.805 4.41246 27.585C5.19246 28.365 5.19246 29.6325 4.41246 30.4125L1.58496 27.585Z" fill="url(#paint11_linear)"/>
<path d="M0 16C0 16 7.1625 7 16 7C24.8375 7 32 16 32 16C32 16 24.8375 25 16 25C7.1625 25 0 16 0 16Z" fill="url(#paint12_linear)"/>
<path d="M16 24C20.4183 24 24 20.4183 24 16C24 11.5817 20.4183 8 16 8C11.5817 8 8 11.5817 8 16C8 20.4183 11.5817 24 16 24Z" fill="url(#paint13_linear)"/>
<path d="M16 19C17.6569 19 19 17.6569 19 16C19 14.3431 17.6569 13 16 13C14.3431 13 13 14.3431 13 16C13 17.6569 14.3431 19 16 19Z" fill="url(#paint14_linear)"/>
<path d="M17 16C17.5523 16 18 15.5523 18 15C18 14.4477 17.5523 14 17 14C16.4477 14 16 14.4477 16 15C16 15.5523 16.4477 16 17 16Z" fill="url(#paint15_linear)"/>
</g>
<defs>
<linearGradient id="paint0_linear" x1="26.8787" y1="0.878675" x2="31.1213" y2="5.12133" gradientUnits="userSpaceOnUse">
<stop stop-color="#006296"/>
<stop offset="1" stop-color="#002E57"/>
</linearGradient>
<linearGradient id="paint1_linear" x1="27.5858" y1="1.58578" x2="30.4142" y2="4.41423" gradientUnits="userSpaceOnUse">
<stop stop-color="#64BBED"/>
<stop offset="1" stop-color="#188AC9"/>
</linearGradient>
<linearGradient id="paint2_linear" x1="28.2927" y1="0.878675" x2="31.1212" y2="3.70712" gradientUnits="userSpaceOnUse">
<stop stop-color="#AADDFA"/>
<stop offset="1" stop-color="#6AB6E0"/>
</linearGradient>
<linearGradient id="paint3_linear" x1="0.878675" y1="0.878675" x2="5.12133" y2="5.12133" gradientUnits="userSpaceOnUse">
<stop stop-color="#006296"/>
<stop offset="1" stop-color="#002E57"/>
</linearGradient>
<linearGradient id="paint4_linear" x1="1.58578" y1="1.58578" x2="4.41423" y2="4.41423" gradientUnits="userSpaceOnUse">
<stop stop-color="#64BBED"/>
<stop offset="1" stop-color="#188AC9"/>
</linearGradient>
<linearGradient id="paint5_linear" x1="2.29284" y1="0.878675" x2="5.12129" y2="3.70712" gradientUnits="userSpaceOnUse">
<stop stop-color="#AADDFA"/>
<stop offset="1" stop-color="#6AB6E0"/>
</linearGradient>
<linearGradient id="paint6_linear" x1="26.8787" y1="26.8787" x2="31.1213" y2="31.1213" gradientUnits="userSpaceOnUse">
<stop stop-color="#006296"/>
<stop offset="1" stop-color="#002E57"/>
</linearGradient>
<linearGradient id="paint7_linear" x1="27.5858" y1="27.5858" x2="30.4142" y2="30.4142" gradientUnits="userSpaceOnUse">
<stop stop-color="#64BBED"/>
<stop offset="1" stop-color="#188AC9"/>
</linearGradient>
<linearGradient id="paint8_linear" x1="28.2927" y1="26.8786" x2="31.1212" y2="29.7071" gradientUnits="userSpaceOnUse">
<stop stop-color="#AADDFA"/>
<stop offset="1" stop-color="#6AB6E0"/>
</linearGradient>
<linearGradient id="paint9_linear" x1="0.878675" y1="26.8787" x2="5.12133" y2="31.1213" gradientUnits="userSpaceOnUse">
<stop stop-color="#006296"/>
<stop offset="1" stop-color="#002E57"/>
</linearGradient>
<linearGradient id="paint10_linear" x1="1.58577" y1="27.5858" x2="4.41423" y2="30.4142" gradientUnits="userSpaceOnUse">
<stop stop-color="#64BBED"/>
<stop offset="1" stop-color="#188AC9"/>
</linearGradient>
<linearGradient id="paint11_linear" x1="2.29284" y1="26.8786" x2="5.12129" y2="29.7071" gradientUnits="userSpaceOnUse">
<stop stop-color="#AADDFA"/>
<stop offset="1" stop-color="#6AB6E0"/>
</linearGradient>
<linearGradient id="paint12_linear" x1="7.92082" y1="7.92083" x2="24.0792" y2="24.0792" gradientUnits="userSpaceOnUse">
<stop stop-color="#AADDFA"/>
<stop offset="1" stop-color="#6AB6E0"/>
</linearGradient>
<linearGradient id="paint13_linear" x1="10.3431" y1="10.3431" x2="21.6569" y2="21.6569" gradientUnits="userSpaceOnUse">
<stop stop-color="#64BBED"/>
<stop offset="1" stop-color="#188AC9"/>
</linearGradient>
<linearGradient id="paint14_linear" x1="13.8787" y1="13.8787" x2="18.1213" y2="18.1213" gradientUnits="userSpaceOnUse">
<stop stop-color="#006296"/>
<stop offset="1" stop-color="#002E57"/>
</linearGradient>
<linearGradient id="paint15_linear" x1="16.2929" y1="14.2929" x2="17.7071" y2="15.7071" gradientUnits="userSpaceOnUse">
<stop stop-color="#E3F2FA"/>
<stop offset="1" stop-color="#6AB6E0"/>
</linearGradient>
<clipPath id="clip0">
<rect width="32" height="32" fill="white"/>
</clipPath>
</defs>
</svg>
